<svg xmlns="http://www.w3.org/2000/svg" version="1.1" xmlns:xlink="http://www.w3.org/1999/xlink" xmlns:svgjs="http://svgjs.dev/svgjs" width="1000" height="623" viewBox="0 0 1000 623"><g transform="matrix(1,0,0,1,-0.6060606060606233,0.2522267206477409)"><svg viewBox="0 0 396 247" data-background-color="#ffffff" preserveAspectRatio="xMidYMid meet" height="623" width="1000" xmlns="http://www.w3.org/2000/svg" xmlns:xlink="http://www.w3.org/1999/xlink"><g id="tight-bounds" transform="matrix(1,0,0,1,0.2400000000000091,-0.09999999999999432)"><svg viewBox="0 0 395.52 247.2" height="247.2" width="395.52"><rect width="395.5199890136719" height="247.1999969482422" fill="url(#8d855b25-1006-46c8-9cea-5269ee7db321)" mask="url(#268f3ce1-84ad-49e7-a2a0-66bb808c6832)" data-fill-palette-color="tertiary"></rect><g><svg></svg></g><g><svg viewBox="0 0 395.52 247.2" height="247.2" width="395.52"><g transform="matrix(1,0,0,1,75.54432,89.33584192300206)"><svg viewBox="0 0 244.43135999999998 68.52831615399586" height="68.52831615399586" width="244.43135999999998"><g><svg viewBox="0 0 244.43135999999998 68.52831615399586" height="68.52831615399586" width="244.43135999999998"><g><svg viewBox="0 0 244.43135999999998 68.52831615399586" height="68.52831615399586" width="244.43135999999998"><g id="textblocktransform"><svg viewBox="0 0 244.43135999999998 68.52831615399586" height="68.52831615399586" width="244.43135999999998" id="textblock"><g><rect width="244.43135999999998" height="53.49872323782191" fill="none" stroke-width="5.573187777599999" stroke="url(#8d855b25-1006-46c8-9cea-5269ee7db321)" data-fill-palette-color="none" data-stroke-palette-color="tertiary"></rect><rect width="244.43135999999998" height="15.029592916173943" y="53.49872323782191" fill="url(#8d855b25-1006-46c8-9cea-5269ee7db321)" data-fill-palette-color="tertiary"></rect></g><g><svg viewBox="0 0 244.43135999999998 53.49872323782191" height="53.49872323782191" width="244.43135999999998"><g transform="matrix(1,0,0,1,14.5894968,14.5894968)"><svg width="215.25236639999997" viewBox="3.369999885559082 -36.040000915527344 323.239990234375 36.53000259399414" height="24.319729637821915" data-palette-color="url(#3ed8dcd3-d505-428c-873d-f64750a26423)"></svg></g></svg></g></svg></g></svg></g></svg></g></svg></g></svg></g><defs></defs><mask id="a4dc12e7-1c23-464b-8917-660b67cc5d8d"><g id="SvgjsG1157"><svg viewBox="0 0 395.52 247.2" height="247.2" width="395.52"><g><svg></svg></g><g><svg viewBox="0 0 395.52 247.2" height="247.2" width="395.52"><g transform="matrix(1,0,0,1,75.54432,89.33584192300206)"><svg viewBox="0 0 244.43135999999998 68.52831615399586" height="68.52831615399586" width="244.43135999999998"><g><svg viewBox="0 0 244.43135999999998 68.52831615399586" height="68.52831615399586" width="244.43135999999998"><g><svg viewBox="0 0 244.43135999999998 68.52831615399586" height="68.52831615399586" width="244.43135999999998"><g id="SvgjsG1156"><svg viewBox="0 0 244.43135999999998 68.52831615399586" height="68.52831615399586" width="244.43135999999998" id="SvgjsSvg1155"><g></g><g><svg viewBox="0 0 244.43135999999998 53.49872323782191" height="53.49872323782191" width="244.43135999999998"><g transform="matrix(1,0,0,1,14.5894968,14.5894968)"><svg width="215.25236639999997" viewBox="3.369999885559082 -36.040000915527344 323.239990234375 36.53000259399414" height="24.319729637821915" data-palette-color="url(#3ed8dcd3-d505-428c-873d-f64750a26423)"><path d="M3.37-35.55L3.37 0 12.35 0Q14.79 0 16.93-0.59 19.07-1.17 20.83-2.27L20.83-2.27Q22.39-3.27 23.67-4.69 24.95-6.1 25.85-7.84L25.85-7.84Q26.78-9.62 27.28-11.78 27.78-13.94 27.78-16.36L27.78-16.36 27.78-19.14Q27.78-21.66 27.25-23.88 26.71-26.1 25.73-27.95L25.73-27.95Q24.78-29.74 23.38-31.18 21.97-32.62 20.17-33.57L20.17-33.57Q18.51-34.5 16.48-35.02 14.45-35.55 12.16-35.55L12.16-35.55 3.37-35.55ZM9.3-4.76L9.3-30.76 12.16-30.76Q13.57-30.74 14.79-30.43 16.02-30.13 16.99-29.57L16.99-29.57Q18.33-28.81 19.31-27.6 20.29-26.39 20.87-24.9L20.87-24.9Q21.34-23.68 21.58-22.24 21.83-20.8 21.83-19.19L21.83-19.19 21.83-16.36Q21.83-14.72 21.58-13.28 21.34-11.84 20.87-10.62L20.87-10.62Q20.34-9.18 19.49-8.07 18.65-6.96 17.58-6.23L17.58-6.23Q16.53-5.52 15.22-5.14 13.92-4.76 12.35-4.76L12.35-4.76 9.3-4.76ZM39.74-8.18L50.9-8.18 53.29 0 59.37 0 48-35.55 42.8-35.55 31.22 0 37.33 0 39.74-8.18ZM49.46-13.21L41.23-13.21 45.38-27.27 49.46-13.21ZM61.18-35.55L72.11 0 77.83 0 88.76-35.55 82.37-35.55 75.56-10.96 74.95-8.81 74.36-10.94 67.6-35.55 61.18-35.55ZM115.47-35.55L94.52-35.55 94.52-30.69 101.95-30.69 101.95-4.83 94.52-4.83 94.52 0 115.47 0 115.47-4.83 107.88-4.83 107.88-30.69 115.47-30.69 115.47-35.55ZM123.38-35.55L123.38 0 132.36 0Q134.8 0 136.94-0.59 139.08-1.17 140.83-2.27L140.83-2.27Q142.4-3.27 143.68-4.69 144.96-6.1 145.86-7.84L145.86-7.84Q146.79-9.62 147.29-11.78 147.79-13.94 147.79-16.36L147.79-16.36 147.79-19.14Q147.79-21.66 147.26-23.88 146.72-26.1 145.74-27.95L145.74-27.95Q144.79-29.74 143.39-31.18 141.98-32.62 140.18-33.57L140.18-33.57Q138.52-34.5 136.49-35.02 134.46-35.55 132.17-35.55L132.17-35.55 123.38-35.55ZM129.31-4.76L129.31-30.76 132.17-30.76Q133.58-30.74 134.8-30.43 136.03-30.13 137-29.57L137-29.57Q138.34-28.81 139.32-27.6 140.3-26.39 140.88-24.9L140.88-24.9Q141.35-23.68 141.59-22.24 141.84-20.8 141.84-19.19L141.84-19.19 141.84-16.36Q141.84-14.72 141.59-13.28 141.35-11.84 140.88-10.62L140.88-10.62Q140.35-9.18 139.5-8.07 138.66-6.96 137.59-6.23L137.59-6.23Q136.54-5.52 135.23-5.14 133.93-4.76 132.36-4.76L132.36-4.76 129.31-4.76ZM170.72 0L176.6 0 176.6-35.55 170.69-35.55 170.64-11.18 159.17-35.55 153.21-35.55 153.21 0 159.14 0 159.17-24.46 170.72 0ZM207.48-4.37L207.48-4.37 207.43-17.97 195.22-17.97 195.22-13.4 201.67-13.4 201.65-6.3Q201.25-5.79 200.6-5.41 199.94-5.03 199.15-4.79L199.15-4.79Q198.35-4.54 197.47-4.43 196.59-4.32 195.74-4.32L195.74-4.32Q194.3-4.35 193.16-4.81 192.03-5.27 191.17-6.13L191.17-6.13Q190.49-6.79 189.99-7.64 189.49-8.5 189.12-9.47L189.12-9.47Q188.66-10.77 188.42-12.28 188.19-13.79 188.19-15.48L188.19-15.48 188.19-20.07Q188.19-21.51 188.36-22.88 188.53-24.24 188.9-25.44L188.9-25.44Q189.32-26.81 189.96-27.92 190.61-29.03 191.49-29.79L191.49-29.79Q192.25-30.44 193.2-30.82 194.15-31.2 195.27-31.2L195.27-31.2Q196.81-31.2 197.95-30.76 199.08-30.32 199.86-29.49L199.86-29.49Q200.6-28.71 201.03-27.58 201.47-26.44 201.69-25.05L201.69-25.05 207.46-25.05Q207.21-27.59 206.31-29.63 205.4-31.67 203.84-33.11L203.84-33.11Q202.3-34.52 200.13-35.28 197.96-36.04 195.15-36.04L195.15-36.04Q193.08-36.04 191.31-35.45 189.54-34.86 188.07-33.79L188.07-33.79Q186.73-32.76 185.68-31.37 184.63-29.98 183.87-28.3L183.87-28.3Q183.09-26.51 182.69-24.41 182.28-22.31 182.26-20.02L182.26-20.02 182.26-15.48Q182.28-13.11 182.72-10.96 183.16-8.81 184.02-7.03L184.02-7.03Q184.78-5.32 185.91-3.93 187.05-2.54 188.49-1.56L188.49-1.56Q189.93-0.59 191.71-0.05 193.49 0.49 195.54 0.49L195.54 0.49Q197.76 0.49 199.72 0.04 201.67-0.42 203.33-1.22L203.33-1.22Q204.65-1.86 205.7-2.67 206.75-3.49 207.48-4.37ZM236.8-11.77L236.77-35.55 230.99-35.55 230.94-11.77Q230.89-10.11 230.5-8.73 230.11-7.35 229.35-6.35L229.35-6.35Q228.6-5.37 227.48-4.85 226.37-4.32 224.93-4.32L224.93-4.32Q223.52-4.32 222.46-4.85 221.39-5.37 220.66-6.3L220.66-6.3Q219.9-7.28 219.51-8.68 219.12-10.08 219.1-11.77L219.1-11.77 219.05-35.55 213.26-35.55 213.21-11.77Q213.24-9.01 214.08-6.74 214.92-4.47 216.46-2.86L216.46-2.86Q217.98-1.25 220.12-0.38 222.27 0.49 224.93 0.49L224.93 0.49Q227.64 0.49 229.83-0.39 232.01-1.27 233.58-2.88L233.58-2.88Q235.11-4.49 235.96-6.75 236.8-9.01 236.8-11.77L236.8-11.77ZM262.55-35.55L255.11-18.55 247.64-35.55 241.12-35.55 252.15-12.87 252.18 0 257.91 0 257.96-12.7 269.1-35.55 262.55-35.55ZM279.86-15.94L294.56-15.94 294.56-20.68 279.86-20.68 279.86-30.69 296.9-30.69 296.9-35.55 273.98-35.55 273.98 0 297.02 0 297.02-4.83 279.86-4.83 279.86-15.94ZM320.73 0L326.61 0 326.61-35.55 320.7-35.55 320.65-11.18 309.18-35.55 303.22-35.55 303.22 0 309.15 0 309.18-24.46 320.73 0Z" opacity="1" transform="matrix(1,0,0,1,0,0)" fill="white" class="wordmark-text-0" id="SvgjsPath1154"></path></svg></g></svg></g></svg></g></svg></g></svg></g></svg></g><path d="M208.74 83.336L208.74 19.365 0.269 19.365 0.269 227.835 208.74 227.835 208.74 163.864 205.953 163.864 205.953 225.049 3.056 225.049 3.056 22.151 205.953 22.151 205.953 83.336Z" fill="white" stroke="transparent"></path></svg></g><defs><mask></mask></defs></svg></g></mask><linearGradient x1="0" x2="1" y1="0.5" y2="0.5" id="3ed8dcd3-d505-428c-873d-f64750a26423"><stop stop-color="#f00b51" offset="0"></stop><stop stop-color="#730062" offset="1"></stop></linearGradient><rect width="395.5199890136719" height="247.1999969482422" fill="url(#3ed8dcd3-d505-428c-873d-f64750a26423)" mask="url(#a4dc12e7-1c23-464b-8917-660b67cc5d8d)" data-fill-palette-color="primary"></rect><mask id="268f3ce1-84ad-49e7-a2a0-66bb808c6832"><g id="SvgjsG1164"><svg viewBox="0 0 395.52 247.2" height="247.2" width="395.52"><g><svg></svg></g><g><svg viewBox="0 0 395.52 247.2" height="247.2" width="395.52"><g transform="matrix(1,0,0,1,75.54432,89.33584192300206)"><svg viewBox="0 0 244.43135999999998 68.52831615399586" height="68.52831615399586" width="244.43135999999998"><g><svg viewBox="0 0 244.43135999999998 68.52831615399586" height="68.52831615399586" width="244.43135999999998"><g><svg viewBox="0 0 244.43135999999998 68.52831615399586" height="68.52831615399586" width="244.43135999999998"><g id="SvgjsG1163"><svg viewBox="0 0 244.43135999999998 68.52831615399586" height="68.52831615399586" width="244.43135999999998" id="SvgjsSvg1162"><g><rect width="244.43135999999998" height="15.029592916173943" y="53.49872323782191" fill="white"></rect></g><g><svg viewBox="0 0 244.43135999999998 53.49872323782191" height="53.49872323782191" width="244.43135999999998"><g transform="matrix(1,0,0,1,14.5894968,14.5894968)"><svg width="215.25236639999997" viewBox="3.369999885559082 -36.040000915527344 323.239990234375 36.53000259399414" height="24.319729637821915" data-palette-color="url(#3ed8dcd3-d505-428c-873d-f64750a26423)"></svg></g></svg></g></svg></g></svg></g></svg></g></svg></g></svg></g><defs><mask></mask></defs><mask><g id="SvgjsG1161"><svg viewBox="0 0 395.52 247.2" height="247.2" width="395.52"><g><svg></svg></g><g><svg viewBox="0 0 395.52 247.2" height="247.2" width="395.52"><g transform="matrix(1,0,0,1,75.54432,89.33584192300206)"><svg viewBox="0 0 244.43135999999998 68.52831615399586" height="68.52831615399586" width="244.43135999999998"><g><svg viewBox="0 0 244.43135999999998 68.52831615399586" height="68.52831615399586" width="244.43135999999998"><g><svg viewBox="0 0 244.43135999999998 68.52831615399586" height="68.52831615399586" width="244.43135999999998"><g id="SvgjsG1160"><svg viewBox="0 0 244.43135999999998 68.52831615399586" height="68.52831615399586" width="244.43135999999998" id="SvgjsSvg1159"><g></g><g><svg viewBox="0 0 244.43135999999998 53.49872323782191" height="53.49872323782191" width="244.43135999999998"><g transform="matrix(1,0,0,1,14.5894968,14.5894968)"><svg width="215.25236639999997" viewBox="3.369999885559082 -36.040000915527344 323.239990234375 36.53000259399414" height="24.319729637821915" data-palette-color="url(#3ed8dcd3-d505-428c-873d-f64750a26423)"></svg></g></svg></g></svg></g></svg></g></svg></g></svg></g></svg></g><defs><mask></mask></defs></svg></g></mask></svg></g></mask><linearGradient x1="0" x2="1" y1="0.5" y2="0.5" id="8d855b25-1006-46c8-9cea-5269ee7db321"><stop stop-color="#f00b51" offset="0"></stop><stop stop-color="#730062" offset="1"></stop></linearGradient></svg><rect width="395.52" height="247.2" fill="none" stroke="none" visibility="hidden"></rect></g></svg></g></svg>